<?xml version="1.0" standalone="no"?><svg xmlns="http://www.w3.org/2000/svg" viewBox="0 0 1440 320"><path fill="#FF5E1E" fill-opacity="1" d="M0,224L12,218.7C24,213,48,203,72,176C96,149,120,107,144,96C168,85,192,107,216,138.7C240,171,264,213,288,208C312,203,336,149,360,144C384,139,408,181,432,170.7C456,160,480,96,504,85.3C528,75,552,117,576,144C600,171,624,181,648,154.7C672,128,696,64,720,53.3C744,43,768,85,792,122.7C816,160,840,192,864,197.3C888,203,912,181,936,165.3C960,149,984,139,1008,122.7C1032,107,1056,85,1080,112C1104,139,1128,213,1152,213.3C1176,213,1200,139,1224,122.7C1248,107,1272,149,1296,176C1320,203,1344,213,1368,192C1392,171,1416,117,1428,90.7L1440,64L1440,320L1428,320C1416,320,1392,320,1368,320C1344,320,1320,320,1296,320C1272,320,1248,320,1224,320C1200,320,1176,320,1152,320C1128,320,1104,320,1080,320C1056,320,1032,320,1008,320C984,320,960,320,936,320C912,320,888,320,864,320C840,320,816,320,792,320C768,320,744,320,720,320C696,320,672,320,648,320C624,320,600,320,576,320C552,320,528,320,504,320C480,320,456,320,432,320C408,320,384,320,360,320C336,320,312,320,288,320C264,320,240,320,216,320C192,320,168,320,144,320C120,320,96,320,72,320C48,320,24,320,12,320L0,320Z"></path></svg>